<svg width="28" height="24" viewBox="0 0 28 24" fill="none" xmlns="http://www.w3.org/2000/svg">
<path d="M26.9197 1.33517C26.5999 1.19335 26.2479 1.1562 25.9084 1.22841C25.5689 1.30062 25.257 1.47895 25.0122 1.74084L20.6827 6.37416L15.2378 0.548808C15.0753 0.374822 14.8823 0.236802 14.67 0.142635C14.4576 0.0484681 14.2299 0 14 0C13.7701 0 13.5424 0.0484681 13.33 0.142635C13.1177 0.236802 12.9247 0.374822 12.7622 0.548808L7.31733 6.37416L2.98783 1.74084C2.74309 1.47882 2.4312 1.30037 2.09163 1.22805C1.75205 1.15574 1.40007 1.19282 1.0802 1.3346C0.760328 1.47638 0.486957 1.71649 0.294676 2.02454C0.102394 2.3326 -0.00015676 2.69475 1.79863e-07 3.06518V17.1349C0.00216115 18.9549 0.678895 20.6997 1.88179 21.9867C3.08468 23.2737 4.71552 23.9977 6.41667 24H21.5833C23.2845 23.9977 24.9153 23.2737 26.1182 21.9867C27.3211 20.6997 27.9978 18.9549 28 17.1349V3.06518C28 2.69483 27.8974 2.33279 27.7051 2.02485C27.5128 1.7169 27.2395 1.47689 26.9197 1.33517ZM24.5 17.1349C24.5 17.9625 24.1927 18.7562 23.6457 19.3414C23.0987 19.9266 22.3569 20.2554 21.5833 20.2554H6.41667C5.64312 20.2554 4.90125 19.9266 4.35427 19.3414C3.80729 18.7562 3.5 17.9625 3.5 17.1349V7.58491L6.08067 10.3459C6.40884 10.6969 6.85388 10.8941 7.31792 10.8941C7.78195 10.8941 8.22699 10.6969 8.55517 10.3459L14 4.52058L19.4448 10.3459C19.773 10.6969 20.218 10.8941 20.6821 10.8941C21.1461 10.8941 21.5912 10.6969 21.9193 10.3459L24.5 7.58491V17.1349Z" fill="#444CE7"/>
</svg>
