<svg width="500" height="390" viewBox="0 0 500 390" fill="none" xmlns="http://www.w3.org/2000/svg">
<rect width="500" height="390" fill="white"/>
<mask id="mask0_14_833" style="mask-type:luminance" maskUnits="userSpaceOnUse" x="151" y="113" width="87" height="183">
<path d="M151.969 113.333H237.333V296H151.969V113.333Z" fill="white"/>
</mask>
<g mask="url(#mask0_14_833)">
<path fill-rule="evenodd" clip-rule="evenodd" d="M215.443 199.12L237.234 211.724V125.333L218.016 114.224L197.948 125.781V149.073L192.526 152.208V128.922L174.833 139.151V163.766L195.292 175.552L215.385 163.938V142.177L220.812 139.036V167.073L197.948 180.271V203.417L192.526 206.552V180.245L172.542 168.682L151.969 180.552V200.505L174.833 187.307V193.583L151.969 206.781V229.276L172.542 241.146L189.526 231.339L173.422 222.01V215.766L220.812 243.125V275.396L215.385 272.26V246.26L194.953 234.474L174.833 246.089V269.943L192.526 280.146V253.438L197.948 256.573V283.281L218.495 295.151L237.234 284.328V218L215.443 205.396V199.12Z" fill="#20A665"/>
</g>
<path fill-rule="evenodd" clip-rule="evenodd" d="M242.828 132.057V283.734L248.396 286.984L257.099 291.984C255.688 296.906 257.75 302.359 262.385 305.016C267.87 308.182 274.849 306.312 278.016 300.833C281.151 295.38 279.286 288.37 273.833 285.203C269.198 282.547 263.458 283.479 259.896 287.156L248.396 280.51V128.833L259.896 122.193C263.458 125.896 269.198 126.828 273.833 124.146C279.286 120.979 281.151 114 278.016 108.516C274.849 103.062 267.87 101.198 262.385 104.333C257.75 107.016 255.688 112.443 257.099 117.359L248.396 122.391L242.828 125.615V132.057ZM265.776 299.135C263.573 297.839 262.807 295.01 264.109 292.807C265.38 290.604 268.208 289.839 270.411 291.109C272.646 292.38 273.38 295.208 272.109 297.443C270.833 299.646 268.01 300.406 265.776 299.135ZM264.109 116.568C262.807 114.339 263.573 111.51 265.776 110.24C268.01 108.969 270.833 109.729 272.109 111.937C273.38 114.141 272.646 116.964 270.411 118.24C268.208 119.536 265.38 118.776 264.109 116.568Z" fill="black"/>
<mask id="mask1_14_833" style="mask-type:luminance" maskUnits="userSpaceOnUse" x="253" y="161" width="95" height="37">
<path d="M253.333 161.333H347.969V197.333H253.333V161.333Z" fill="white"/>
</mask>
<g mask="url(#mask1_14_833)">
<path fill-rule="evenodd" clip-rule="evenodd" d="M268.208 174.052H254.417V179.62H270.526L276.12 174.052L282.958 167.214H312.885L325.635 179.958C323.005 184.339 323.573 190.135 327.359 193.922C331.823 198.385 339.083 198.385 343.552 193.922C348.015 189.453 348.015 182.219 343.552 177.755C339.765 173.969 333.969 173.375 329.588 176.005L320.771 167.214L315.203 161.62H280.64L275.073 167.214L268.208 174.052ZM332.187 182.557C334 180.75 336.911 180.75 338.719 182.557C340.526 184.37 340.526 187.307 338.719 189.089C336.911 190.896 334 190.896 332.187 189.089C330.38 187.307 330.38 184.37 332.187 182.557Z" fill="black"/>
</g>
<path fill-rule="evenodd" clip-rule="evenodd" d="M254.417 151.333H261.818L273.974 139.177H282.875C284.146 144.151 288.641 147.828 293.979 147.828C300.281 147.828 305.427 142.714 305.427 136.38C305.427 130.078 300.281 124.964 293.979 124.964C288.641 124.964 284.146 128.635 282.875 133.583H271.656L266.057 139.177L259.5 145.766H254.417V151.333ZM289.344 136.38C289.344 133.839 291.438 131.776 293.979 131.776C296.526 131.776 298.615 133.839 298.615 136.38C298.615 138.953 296.526 141.016 293.979 141.016C291.438 141.016 289.344 138.953 289.344 136.38Z" fill="#20A665"/>
<mask id="mask2_14_833" style="mask-type:luminance" maskUnits="userSpaceOnUse" x="253" y="212" width="95" height="36">
<path d="M253.333 212H347.969V248H253.333V212Z" fill="white"/>
</mask>
<g mask="url(#mask2_14_833)">
<path fill-rule="evenodd" clip-rule="evenodd" d="M262.64 229.729H254.417V235.323H268.208L275.073 242.161L280.64 247.729H315.203L329.588 233.344C333.969 235.974 339.765 235.406 343.552 231.62C348.015 227.156 348.015 219.922 343.552 215.453C339.083 210.99 331.823 210.99 327.359 215.453C323.573 219.245 323.005 225.01 325.635 229.391L312.885 242.161H282.958L270.526 229.729H262.64ZM338.719 226.818C336.911 228.625 334 228.625 332.187 226.818C330.38 225.01 330.38 222.068 332.187 220.26C334 218.453 336.911 218.453 338.719 220.26C340.526 222.068 340.526 225.01 338.719 226.818Z" fill="black"/>
</g>
<path fill-rule="evenodd" clip-rule="evenodd" d="M254.417 207.484H292.906C294.151 212.432 298.646 216.104 303.984 216.104C310.318 216.104 315.432 210.99 315.432 204.687C315.432 198.359 310.318 193.245 303.984 193.245C298.646 193.245 294.151 196.917 292.906 201.891H254.417V207.484ZM299.38 204.687C299.38 202.115 301.443 200.052 303.984 200.052C306.557 200.052 308.62 202.115 308.62 204.687C308.62 207.229 306.557 209.297 303.984 209.297C301.443 209.297 299.38 207.229 299.38 204.687Z" fill="#20A665"/>
<path fill-rule="evenodd" clip-rule="evenodd" d="M267.385 263.615L261.818 258.016H254.417V263.615H259.5L266.057 270.167L271.656 275.766H282.875C284.146 280.74 288.641 284.411 293.979 284.411C300.281 284.411 305.427 279.297 305.427 272.969C305.427 266.667 300.281 261.547 293.979 261.547C288.641 261.547 284.146 265.224 282.875 270.167H273.974L267.385 263.615ZM293.979 277.604C291.438 277.604 289.344 275.536 289.344 272.969C289.344 270.422 291.438 268.359 293.979 268.359C296.526 268.359 298.615 270.422 298.615 272.969C298.615 275.536 296.526 277.604 293.979 277.604Z" fill="#20A665"/>
</svg>
