<svg width="46" height="27" viewBox="0 0 46 27" fill="none" xmlns="http://www.w3.org/2000/svg">
<path d="M2.80664 22.2325V26.5217H0.543213V16.0533H4.57212C5.90755 16.0533 6.57526 16.7663 6.57526 18.1923V19.4032C6.57526 20.2676 6.26687 20.8179 5.65291 21.0555C6.19189 21.2479 6.46209 21.6893 6.46209 22.3796V26.5217H4.19865V22.5607C4.19865 22.3429 4.0968 22.2325 3.89309 22.2325H2.80664ZM2.80664 17.5925V20.6481H4.00626C4.09256 20.6481 4.1647 20.617 4.22129 20.5519C4.2807 20.4883 4.31183 20.4133 4.31183 20.3256V17.915C4.31183 17.8287 4.2807 17.7537 4.22129 17.6887C4.1647 17.625 4.09256 17.5925 4.00626 17.5925H2.80664Z" fill="#20A665"/>
<path d="M12.1927 15.8949C13.5282 15.8949 14.1959 16.6065 14.1959 18.0282V26.5217H11.9325V23.0134H10.2971V26.5217H8.03369V18.0282C8.03369 16.6065 8.7014 15.8949 10.0368 15.8949H12.1927ZM10.2971 21.2649H11.9325V17.7509C11.9325 17.6689 11.9013 17.5953 11.8419 17.5303C11.7853 17.4624 11.7132 17.4284 11.6269 17.4284H10.6083C10.5206 17.4284 10.4471 17.4624 10.3877 17.5303C10.3268 17.5953 10.2971 17.6689 10.2971 17.7509V21.2649ZM13.2113 13.5806L11.0893 15.2272H9.48795L10.8347 13.5806H13.2113Z" fill="black"/>
<path d="M19.952 16.0533C21.2902 16.0533 21.9608 16.7663 21.9608 18.1923V20.2746C21.9608 21.7006 21.2902 22.4136 19.952 22.4136H18.1243V26.5217H15.8608V16.0533H19.952ZM19.6974 20.5349V17.932C19.6974 17.8457 19.6662 17.7707 19.6068 17.7056C19.546 17.642 19.4724 17.6095 19.3861 17.6095H18.1243V20.8575H19.3861C19.4724 20.8575 19.546 20.8264 19.6068 20.7613C19.6662 20.6976 19.6974 20.6226 19.6974 20.5349Z" fill="black"/>
<path d="M25.355 16.0533V26.5217H23.0916V16.0533H25.355Z" fill="black"/>
<path d="M31.1969 16.0533C32.5323 16.0533 33.2 16.7663 33.2 18.1923V24.3884C33.2 25.8116 32.5323 26.5217 31.1969 26.5217H27.0378V16.0533H31.1969ZM30.9366 24.6431V17.915C30.9366 17.8287 30.9055 17.7537 30.8461 17.6887C30.7895 17.625 30.7173 17.5925 30.631 17.5925H29.3013V24.9713H30.631C30.7173 24.9713 30.7895 24.9401 30.8461 24.8751C30.9055 24.8072 30.9366 24.7308 30.9366 24.6431Z" fill="black"/>
<path d="M41.0443 18.0282V24.5469C41.0443 25.9728 40.3766 26.6858 39.0411 26.6858H36.8852C35.5498 26.6858 34.8821 25.9728 34.8821 24.5469V18.0282C34.8821 16.6065 35.5498 15.8949 36.8852 15.8949H39.0411C40.3766 15.8949 41.0443 16.6065 41.0443 18.0282ZM38.7808 24.8072V17.7509C38.7808 17.6689 38.7497 17.5953 38.6903 17.5302C38.6337 17.4623 38.5616 17.4284 38.4753 17.4284H37.4567C37.369 17.4284 37.2955 17.4623 37.236 17.5302C37.1752 17.5953 37.1455 17.6689 37.1455 17.7509V24.8072C37.1455 24.8949 37.1752 24.9698 37.236 25.0335C37.2955 25.0986 37.369 25.1297 37.4567 25.1297H38.4753C38.5616 25.1297 38.6337 25.0986 38.6903 25.0335C38.7497 24.9698 38.7808 24.8949 38.7808 24.8072Z" fill="black"/>
<path d="M2.26343 6.33762V10.6268H0V0.158447H4.02891C5.36433 0.158447 6.03205 0.871428 6.03205 2.29739V3.50833C6.03205 4.37267 5.72365 4.92297 5.1097 5.16063C5.64868 5.35302 5.91887 5.79439 5.91887 6.48474V10.6268H3.65544V6.66581C3.65544 6.44796 3.55359 6.33762 3.34988 6.33762H2.26343ZM2.26343 1.69758V4.75321H3.46305C3.54934 4.75321 3.62149 4.72209 3.67808 4.65702C3.73749 4.59336 3.76861 4.51838 3.76861 4.43067V2.02012C3.76861 1.93383 3.73749 1.85885 3.67808 1.79378C3.62149 1.73012 3.54934 1.69758 3.46305 1.69758H2.26343Z" fill="#20A665"/>
<path d="M9.75391 8.74817H12.2607V10.6268H7.49048V0.158447H12.2607V2.00314H9.75391V4.46463H12.1022V6.24142H9.75391V8.74817Z" fill="black"/>
<path d="M19.3775 2.90851H17.2272V2.08236C17.2272 2.00031 17.1961 1.92675 17.1367 1.86167C17.0801 1.79377 17.0079 1.75982 16.9217 1.75982H16.0333C15.9456 1.75982 15.872 1.79377 15.8126 1.86167C15.7517 1.92675 15.722 2.00031 15.722 2.08236V3.94403C15.722 4.03174 15.7517 4.10671 15.8126 4.17037C15.872 4.23545 15.9456 4.26657 16.0333 4.26657H17.4875C18.8229 4.2892 19.4907 5.00218 19.4907 6.40551V8.65197C19.4907 10.0779 18.8229 10.7909 17.4875 10.7909H15.5749C14.2395 10.7909 13.5718 10.0779 13.5718 8.65197V7.57118H15.722V8.73119C15.722 8.81889 15.7517 8.89529 15.8126 8.96319C15.872 9.02826 15.9456 9.05938 16.0333 9.05938H17.0348C17.1211 9.05938 17.1933 9.02826 17.2499 8.96319C17.3093 8.89529 17.3404 8.81889 17.3404 8.73119V6.67712C17.3404 6.59507 17.3093 6.52151 17.2499 6.45644C17.1933 6.38854 17.1211 6.35458 17.0348 6.35458H15.5749C14.2395 6.35458 13.5718 5.64443 13.5718 4.2213V2.13328C13.5718 0.711566 14.2395 0 15.5749 0H17.3743C18.7098 0 19.3775 0.711566 19.3775 2.13328V2.90851Z" fill="black"/>
<path d="M24.714 0.158447H26.9831V8.65197C26.9831 10.0779 26.3126 10.7909 24.9743 10.7909H22.9712C21.6315 10.7909 20.9624 10.0779 20.9624 8.65197V0.158447H23.2258V8.85003C23.2258 8.93349 23.2555 9.00846 23.3164 9.07637C23.3758 9.14144 23.4493 9.17256 23.5371 9.17256H24.4085C24.4948 9.17256 24.5669 9.14144 24.6235 9.07637C24.6829 9.00846 24.714 8.93349 24.714 8.85003V0.158447Z" fill="black"/>
<path d="M30.7788 10.6268H28.5154V2.13328C28.5154 0.711566 29.1845 0 30.5242 0H31.7181C32.5061 0 33.0677 0.25888 33.4044 0.775225C33.7128 0.25888 34.273 0 35.085 0H36.279C37.6172 0 38.2877 0.711566 38.2877 2.13328V10.6268H36.0243V1.94089C36.0243 1.8546 35.9932 1.77962 35.9338 1.71455C35.8729 1.65089 35.7994 1.61835 35.7131 1.61835H34.8417C34.754 1.61835 34.6804 1.65089 34.621 1.71455C34.5644 1.77962 34.5361 1.8546 34.5361 1.94089V10.6268H32.267V1.94089C32.267 1.8546 32.2359 1.77962 32.1765 1.71455C32.1199 1.65089 32.0477 1.61835 31.9615 1.61835H31.09C31.0023 1.61835 30.9288 1.65089 30.8693 1.71455C30.8085 1.77962 30.7788 1.8546 30.7788 1.94089V10.6268Z" fill="black"/>
<path d="M45.9998 2.13328V8.65197C45.9998 10.0779 45.3321 10.7909 43.9967 10.7909H41.8408C40.5054 10.7909 39.8376 10.0779 39.8376 8.65197V2.13328C39.8376 0.711566 40.5054 0 41.8408 0H43.9967C45.3321 0 45.9998 0.711566 45.9998 2.13328ZM43.7364 8.91226V1.85601C43.7364 1.77396 43.7053 1.7004 43.6459 1.63533C43.5893 1.56743 43.5171 1.53347 43.4308 1.53347H42.4123C42.3246 1.53347 42.251 1.56743 42.1916 1.63533C42.1308 1.7004 42.1011 1.77396 42.1011 1.85601V8.91226C42.1011 8.99997 42.1308 9.07495 42.1916 9.1386C42.251 9.20368 42.3246 9.2348 42.4123 9.2348H43.4308C43.5171 9.2348 43.5893 9.20368 43.6459 9.1386C43.7053 9.07495 43.7364 8.99997 43.7364 8.91226Z" fill="black"/>
</svg>
